{"title":"Miracle on 34th Street 1994 DVDrip English Klam","uid":6847070,"size":1527391604,"categoryP":"video","categoryS":"movies","magnet":"?xt=urn:btih:f409d539bf594714349a56be6f17c9beded326ba&amp;dn=Miracle+on+34th+Street+1994+DVDrip+English+Klam&amp;tr=udp%3A%2F%2Ftracker.openbittorrent.com%3A80&amp;tr=udp%3A%2F%2Fopen.demonii.com%3A1337&amp;tr=udp%3A%2F%2Ftracker.coppersurfer.tk%3A6969&amp;tr=udp%3A%2F%2Fexodus.desync.com%3A6969","seeders":1,"leechers":0,"uploader":"Klambake","files":-1,"time":1322391892,"description":"With: Richard Attenborough, Elizabeth Perkins and Dylan McDermott\n\nKris Kringle wordt door Macy's warenhuis ingehuurd als kerstman voor het kerstseizoen. Een gewetenloze schurkerige rivaal van Macy's stelt alles in het werk om het zo belangrijke en rijke warenhuis over te nemen. Daarnaast probeert hij ook Kris in diskrediet te brengen.\n\nA little girl discovers dreams do come true if you really believe. Six-year-old Susan has doubts about childhood's most enduring miracle - Santa Claus...\n\n------------------------ Dutch Friends ------------------------\n-- Bezoek ook eens mijn vrienden op: http://www.Film-Test.nl --\n----- voor mijn Nederlandse Sync. ondertitels ---- en meer ----\n------- http://www.Film-Test.nl ---- voor Films en meer -------\n---------------------------------------------------------------\n\nGeneral:\n\nComplete name                    : Miracle on 34th Street\\Miracle on 34th Street.avi\nFormat                           : AVI\nFormat/Info                      : Audio Video Interleave\nFile size                        : 1.42 GiB\nDuration                         : 1h 49mn\nOverall bit rate                 : 1 862 Kbps\n\nVideo:\n\nFormat                           : MPEG-4 Visual\nFormat profile                   : Simple@L3\nFormat settings, BVOP            : No\nFormat settings, QPel            : No\nFormat settings, GMC             : No warppoints\nFormat settings, Matrix          : Default (H.263)\nCodec ID                         : XVID\nCodec ID/Hint                    : XviD\nDuration                         : 1h 49mn\nBit rate                         : 1 467 Kbps\nWidth                            : 652 pixels\nHeight                           : 352 pixels\nDisplay aspect ratio             : 1.852\nFrame rate                       : 25.000 fps\nColor space                      : YUV\nChroma subsampling               : 4:2:0\nBit depth                        : 8 bits\nScan type                        : Progressive\nCompression mode                 : Lossy\nBits/(Pixel*Frame)               : 0.256\nStream size                      : 1.12 GiB (79%)\nWriting library                  : XviD 1.1.2 (UTC 2006-11-01)\n\nAudio:\n\nFormat                           : AC-3\nFormat/Info                      : Audio Coding 3\nMode extension                   : CM (complete main)\nCodec ID                         : 2000\nDuration                         : 1h 49mn\nBit rate mode                    : Constant\nBit rate                         : 384 Kbps\nChannel(s)                       : 5 channels\nChannel positions                : Front: L C R, Side: L R\nSampling rate                    : 48.0 KHz\nBit depth                        : 16 bits\nCompression mode                 : Lossy\nStream size                      : 300 MiB (21%)\nAlignment                        : Aligned on interleaves\nInterleave, duration             : 32 ms (0.80 video frame)\nInterleave, preload duration     : 32 ms\n","torrent":{"xt":"urn:btih:f409d539bf594714349a56be6f17c9beded326ba","amp;dn":"Miracle+on+34th+Street+1994+DVDrip+English+Klam","amp;tr":["udp%3A%2F%2Ftracker.openbittorrent.com%3A80","udp%3A%2F%2Fopen.demonii.com%3A1337","udp%3A%2F%2Ftracker.coppersurfer.tk%3A6969","udp%3A%2F%2Fexodus.desync.com%3A6969"],"infoHash":"f409d539bf594714349a56be6f17c9beded326ba","infoHashBuffer":{"type":"Buffer","data":[244,9,213,57,191,89,71,20,52,154,86,190,111,23,201,190,222,211,38,186]},"announce":[],"urlList":[]}}